
        <svg xmlns="http://www.w3.org/2000/svg" xmlns:xlink="http://www.w3.org/1999/xlink" version="1.1" width="315.48031496063" 
        height="106.3855203202338" viewBox="0 0 3157.48031496063 1062.3855203202338">
			
			<g transform="scale(7.874015748031496) translate(10, 10)">
				<defs id="SvgjsDefs1013"></defs><g id="SvgjsG1014" featureKey="UqkkrJ-0" transform="matrix(0.0024333339814981885,0,0,0.0024333339814981885,-17.081837020775783,-3.370167564374991)" fill="#8e0b0b"><defs xmlns="http://www.w3.org/2000/svg"></defs><g xmlns="http://www.w3.org/2000/svg"><path class="fil0" d="M16358 1914c-40,1 -92,3 -147,4 -214,6 -472,13 -754,31 -134,9 -264,25 -392,49 -2447,454 -4392,3604 -5693,7258 -1317,3702 -1961,7903 -1800,10394 21,321 55,611 102,865 219,1181 615,2527 1003,3844 460,1564 909,3088 1048,4286 275,2367 163,3753 -7,5874 -109,1353 -242,3006 -313,5378 -2,79 -4,154 -5,225 -37,2786 809,4765 1960,6054 1139,1275 2571,1874 3731,1909 23,1 43,1 59,1 140,2 280,-1 420,-9 2020,-110 3437,-1238 4359,-2918 943,-1719 1375,-4011 1406,-6395 7,-496 -4,-999 -32,-1505 -65,-1188 -271,-2626 -461,-3953 -211,-1472 -402,-2809 -364,-3562 113,-2228 785,-4651 1382,-6805 380,-1369 729,-2627 879,-3643 40,-272 71,-579 93,-914 155,-2426 -180,-6381 -1183,-9824 -985,-3383 -2605,-6258 -5015,-6614 -93,-14 -186,-24 -278,-30zm-159 -523c52,-1 102,-3 161,-4l16 0 8 0c113,7 222,19 328,34 2660,393 4408,3427 5445,6990 1020,3504 1361,7532 1203,10003 -23,353 -55,675 -97,958 -154,1041 -508,2318 -894,3707 -590,2127 -1254,4520 -1364,6689 -35,702 153,2016 360,3463 191,1335 399,2782 465,4000 28,510 39,1025 32,1538 -33,2466 -484,4846 -1470,6643 -1007,1836 -2565,3070 -4795,3191 -145,8 -296,11 -453,9 -26,0 -49,-1 -68,-1 -1287,-39 -2866,-693 -4109,-2085 -1230,-1377 -2134,-3476 -2095,-6412 1,-81 3,-159 5,-233 72,-2415 205,-4059 313,-5405 168,-2091 278,-3458 10,-5773 -134,-1156 -576,-2657 -1029,-4197 -391,-1329 -790,-2686 -1016,-3898 -52,-278 -88,-588 -110,-927 -165,-2550 489,-6838 1829,-10603 1357,-3812 3428,-7106 6096,-7602 151,-28 302,-47 454,-57 268,-17 544,-25 775,-31zm-5288 19912c-81,-121 -49,-285 72,-366 121,-81 285,-49 366,72 908,1358 1591,2868 1845,4578 254,1709 79,3613 -730,5760 -591,1569 -1009,4115 -1035,6676 -19,1843 165,3690 634,5179 454,1441 1172,2535 2228,2932 278,105 581,162 910,166 357,4 681,-39 974,-124 990,-286 1649,-1062 2068,-2124 436,-1104 613,-2511 628,-4001 35,-3405 -769,-7232 -1273,-8979 -433,-1501 -740,-3067 -577,-4722 163,-1662 797,-3403 2245,-5240 90,-115 256,-135 371,-44 115,90 135,256 44,371 -1379,1750 -1981,3398 -2135,4965 -155,1574 141,3078 559,4525 512,1775 1329,5664 1294,9127 -16,1552 -203,3022 -663,4189 -477,1210 -1246,2100 -2415,2438 -341,98 -715,149 -1123,144 -395,-4 -758,-73 -1092,-199 -1227,-462 -2045,-1679 -2546,-3269 -486,-1542 -677,-3445 -657,-5341 27,-2623 459,-5238 1068,-6858 773,-2055 942,-3871 701,-5497 -241,-1625 -893,-3063 -1760,-4361zm141 3599c-123,77 -286,40 -363,-84 -77,-123 -40,-286 84,-363 1287,-806 2869,-1126 4432,-1098 1787,32 3557,520 4833,1254 126,73 170,234 97,360 -73,126 -234,170 -360,97 -1204,-693 -2880,-1153 -4578,-1184 -1471,-26 -2952,270 -4145,1017zm448 1741c-122,79 -286,45 -365,-78 -79,-122 -45,-286 78,-365 914,-592 2325,-951 3864,-961 1378,-8 2867,262 4202,896 132,62 188,220 126,351 -62,132 -220,188 -351,126 -1261,-599 -2670,-854 -3975,-846 -1440,9 -2745,336 -3579,876zm160 1877c-118,85 -283,58 -368,-60 -85,-118 -58,-283 60,-368 964,-693 2133,-988 3306,-1029 1460,-51 2931,294 4014,753 134,57 197,212 140,346 -57,134 -212,197 -346,140 -1023,-435 -2413,-760 -3790,-712 -1077,38 -2144,304 -3014,929zm178 3575c938,-457 1946,-669 3012,-660 1096,9 2250,252 3449,702l-186 494c-1143,-429 -2236,-661 -3267,-669 -983,-8 -1913,187 -2777,608l-232 -475zm21801 -30710c59,2 108,3 161,4 230,6 507,14 775,31 152,10 303,29 454,57 2668,495 4739,3789 6096,7602 1340,3765 1993,8053 1829,10603 -22,339 -58,649 -110,927 -225,1212 -625,2569 -1016,3898 -453,1540 -895,3041 -1029,4197 -269,2315 -159,3682 10,5773 108,1346 241,2990 313,5405 2,75 4,152 5,233 39,2935 -865,5035 -2095,6412 -1243,1391 -2822,2046 -4109,2085 -19,1 -42,1 -68,1 -157,2 -308,-1 -453,-9 -2230,-121 -3788,-1355 -4795,-3191 -986,-1798 -1438,-4177 -1470,-6643 -7,-514 4,-1028 32,-1538 66,-1218 274,-2665 465,-4000 207,-1447 396,-2762 360,-3463 -110,-2169 -774,-4562 -1364,-6689 -385,-1389 -740,-2666 -894,-3707 -42,-283 -74,-604 -97,-958 -158,-2472 183,-6500 1203,-10003 1037,-3563 2785,-6597 5445,-6990 106,-16 216,-27 328,-34l8 0 16 0zm148 532c-54,-1 -106,-3 -147,-4 -92,6 -185,16 -278,30 -2410,356 -4030,3231 -5015,6614 -1002,3442 -1337,7398 -1183,9824 21,335 52,642 93,914 150,1016 499,2274 879,3643 597,2153 1270,4576 1382,6805 38,754 -153,2090 -364,3562 -190,1327 -396,2765 -461,3953 -28,506 -39,1009 -32,1505 32,2385 464,4677 1406,6395 922,1680 2339,2808 4359,2918 141,8 281,11 420,9 16,0 36,-1 59,-1 1160,-35 2592,-634 3731,-1909 1151,-1289 1998,-3268 1960,-6054 -1,-71 -3,-146 -5,-225 -71,-2372 -204,-4025 -313,-5378 -171,-2121 -282,-3507 -7,-5874 139,-1198 588,-2722 1048,-4286 388,-1318 784,-2664 1003,-3844 47,-254 81,-544 102,-865 161,-2491 -483,-6693 -1800,-10394 -1300,-3654 -3246,-6804 -5693,-7258 -128,-24 -258,-40 -392,-49 -282,-18 -540,-25 -754,-31zm4862 19092c81,-121 245,-153 366,-72 121,81 153,245 72,366 -867,1297 -1519,2736 -1760,4361 -241,1626 -73,3443 701,5497 610,1620 1041,4236 1068,6858 20,1895 -171,3799 -657,5341 -501,1590 -1319,2807 -2546,3269 -334,126 -698,195 -1092,199 -408,4 -781,-46 -1123,-144 -1170,-338 -1938,-1228 -2415,-2438 -460,-1167 -647,-2637 -663,-4189 -36,-3463 781,-7352 1294,-9127 418,-1447 713,-2951 559,-4525 -154,-1567 -757,-3215 -2135,-4965 -90,-115 -70,-281 44,-371 115,-90 281,-70 371,44 1448,1838 2081,3579 2245,5240 163,1655 -144,3220 -577,4722 -504,1747 -1308,5573 -1273,8979 15,1491 192,2897 628,4001 419,1061 1078,1838 2068,2124 293,84 616,127 974,124 329,-3 632,-61 910,-166 1056,-397 1774,-1491 2228,-2932 469,-1489 654,-3336 634,-5179 -27,-2561 -445,-5107 -1035,-6676 -808,-2147 -983,-4051 -730,-5760 254,-1710 937,-3219 1845,-4578zm576 3446c123,77 161,240 84,363 -77,123 -240,161 -363,84 -1193,-747 -2674,-1043 -4145,-1017 -1698,31 -3375,491 -4578,1184 -126,73 -287,29 -360,-97 -73,-126 -29,-287 97,-360 1275,-735 3045,-1222 4833,-1254 1563,-28 3145,292 4432,1098zm-439 1746c122,79 157,243 78,365 -79,122 -243,157 -365,78 -833,-540 -2139,-867 -3579,-876 -1305,-8 -2714,248 -3975,846 -132,62 -289,6 -351,-126 -62,-132 -6,-289 126,-351 1335,-634 2824,-904 4202,-896 1539,9 2949,368 3864,961zm-140 1892c118,85 145,250 60,368 -85,118 -250,145 -368,60 -870,-625 -1937,-892 -3014,-929 -1378,-48 -2767,278 -3790,712 -134,57 -289,-5 -346,-140 -57,-134 5,-289 140,-346 1083,-460 2554,-804 4014,-753 1173,41 2342,336 3306,1029zm-718 4478c-864,-421 -1794,-616 -2777,-608 -1031,9 -2124,240 -3267,669l-186 -494c1199,-450 2353,-693 3449,-702 1066,-9 2075,203 3012,660l-232 475z" style="fill: #8e0b0b; fill-rule: nonzero;"></path></g></g><g id="SvgjsG1015" featureKey="0kuQ8p-0" transform="matrix(2.244740992352402,0,0,2.244740992352402,106.20420731315566,16.890715473269424)" fill="#000000"><path d="M3 8 l0 4.22 l2.84 0 l0 2 l-2.84 0 l0 5.78 l-2.2 0 l0 -14 l5.82 0 l0 2 l-3.62 0 z M7.68 20 l0 -14 l2.2 0 l0 12 l3.62 0 l0 2 l-5.82 0 z M14.36 6 l2.2 0 l0 10.8 c0 1 0.44 1.36 1.14 1.36 s1.14 -0.36 1.14 -1.36 l0 -10.8 l2.08 0 l0 10.66 c0 2.24 -1.12 3.52 -3.28 3.52 s-3.28 -1.28 -3.28 -3.52 l0 -10.66 z M22.42 20 l0 -14 l2.2 0 l0 14 l-2.2 0 z M26.220000000000002 20 l0 -14 l3.48 0 c2.2 0 3.28 1.22 3.28 3.46 l0 7.08 c0 2.24 -1.08 3.46 -3.28 3.46 l-3.48 0 z M29.660000000000004 8 l-1.24 0 l0 10 l1.24 0 c0.7 0 1.12 -0.36 1.12 -1.36 l0 -7.28 c0 -1 -0.42 -1.36 -1.12 -1.36 z M36.4 9.22 l0 7.56 c0 1 0.44 1.38 1.14 1.38 s1.14 -0.38 1.14 -1.38 l0 -7.56 c0 -1 -0.44 -1.38 -1.14 -1.38 s-1.14 0.38 -1.14 1.38 z M34.199999999999996 16.64 l0 -7.28 c0 -2.24 1.18 -3.52 3.34 -3.52 s3.34 1.28 3.34 3.52 l0 7.28 c0 2.24 -1.18 3.52 -3.34 3.52 s-3.34 -1.28 -3.34 -3.52 z M45.120000000000005 9.36 c0 -2.24 1.1 -3.52 3.24 -3.52 s3.24 1.28 3.24 3.52 l0 0.44 l-2.08 0 l0 -0.58 c0 -1 -0.4 -1.38 -1.1 -1.38 s-1.1 0.38 -1.1 1.38 c0 1.02 0.44 1.78 1.88 3.04 c1.84 1.62 2.42 2.78 2.42 4.38 c0 2.24 -1.12 3.52 -3.28 3.52 s-3.28 -1.28 -3.28 -3.52 l0 -0.86 l2.08 0 l0 1 c0 1 0.44 1.36 1.14 1.36 s1.14 -0.36 1.14 -1.36 c0 -1.02 -0.44 -1.78 -1.88 -3.04 c-1.84 -1.62 -2.42 -2.78 -2.42 -4.38 z M55.08 14 l0 6 l-2.2 0 l0 -14 l2.2 0 l0 6 l2.5 0 l0 -6 l2.24 0 l0 14 l-2.24 0 l0 -6 l-2.5 0 z M63.44 9.22 l0 7.56 c0 1 0.44 1.38 1.14 1.38 s1.14 -0.38 1.14 -1.38 l0 -7.56 c0 -1 -0.44 -1.38 -1.14 -1.38 s-1.14 0.38 -1.14 1.38 z M61.239999999999995 16.64 l0 -7.28 c0 -2.24 1.18 -3.52 3.34 -3.52 s3.34 1.28 3.34 3.52 l0 7.28 c0 2.24 -1.18 3.52 -3.34 3.52 s-3.34 -1.28 -3.34 -3.52 z M71.53999999999999 8 l0 3.9 l3.02 0 l0 2 l-3.02 0 l0 4.1 l3.8 0 l0 2 l-6 0 l0 -14 l6 0 l0 2 l-3.8 0 z M76.41999999999999 9.36 c0 -2.24 1.1 -3.52 3.24 -3.52 s3.24 1.28 3.24 3.52 l0 0.44 l-2.08 0 l0 -0.58 c0 -1 -0.4 -1.38 -1.1 -1.38 s-1.1 0.38 -1.1 1.38 c0 1.02 0.44 1.78 1.88 3.04 c1.84 1.62 2.42 2.78 2.42 4.38 c0 2.24 -1.12 3.52 -3.28 3.52 s-3.28 -1.28 -3.28 -3.52 l0 -0.86 l2.08 0 l0 1 c0 1 0.44 1.36 1.14 1.36 s1.14 -0.36 1.14 -1.36 c0 -1.02 -0.44 -1.78 -1.88 -3.04 c-1.84 -1.62 -2.42 -2.78 -2.42 -4.38 z M86.99999999999999 9.36 c0 -2.24 1.1 -3.52 3.24 -3.52 s3.24 1.28 3.24 3.52 l0 0.44 l-2.08 0 l0 -0.58 c0 -1 -0.4 -1.38 -1.1 -1.38 s-1.1 0.38 -1.1 1.38 c0 1.02 0.44 1.78 1.88 3.04 c1.84 1.62 2.42 2.78 2.42 4.38 c0 2.24 -1.12 3.52 -3.28 3.52 s-3.28 -1.28 -3.28 -3.52 l0 -0.86 l2.08 0 l0 1 c0 1 0.44 1.36 1.14 1.36 s1.14 -0.36 1.14 -1.36 c0 -1.02 -0.44 -1.78 -1.88 -3.04 c-1.84 -1.62 -2.42 -2.78 -2.42 -4.38 z M96.96 14 l0 6 l-2.2 0 l0 -14 l2.2 0 l0 6 l2.5 0 l0 -6 l2.24 0 l0 14 l-2.24 0 l0 -6 l-2.5 0 z M105.32 9.22 l0 7.56 c0 1 0.44 1.38 1.14 1.38 s1.14 -0.38 1.14 -1.38 l0 -7.56 c0 -1 -0.44 -1.38 -1.14 -1.38 s-1.14 0.38 -1.14 1.38 z M103.12 16.64 l0 -7.28 c0 -2.24 1.18 -3.52 3.34 -3.52 s3.34 1.28 3.34 3.52 l0 7.28 c0 2.24 -1.18 3.52 -3.34 3.52 s-3.34 -1.28 -3.34 -3.52 z M114.46000000000001 6 c2.2 0 3.28 1.22 3.28 3.46 l0 1.82 c0 2.24 -1.08 3.46 -3.28 3.46 l-1.04 0 l0 5.26 l-2.2 0 l0 -14 l3.24 0 z M114.46000000000001 8 l-1.04 0 l0 4.74 l1.04 0 c0.7 0 1.08 -0.32 1.08 -1.32 l0 -2.1 c0 -1 -0.38 -1.32 -1.08 -1.32 z"></path></g><g id="SvgjsG1016" featureKey="Nh6iBa-0" transform="matrix(0.9572133324088269,0,0,0.9572133324088269,107.23422937971642,66.40987536197795)" fill="#000000"><path d="M4.04 6 c2.2 0 3.28 1.22 3.28 3.46 l0 1.82 c0 2.24 -1.08 3.46 -3.28 3.46 l-1.04 0 l0 5.26 l-2.2 0 l0 -14 l3.24 0 z M4.04 8 l-1.04 0 l0 4.74 l1.04 0 c0.7 0 1.08 -0.32 1.08 -1.32 l0 -2.1 c0 -1 -0.38 -1.32 -1.08 -1.32 z M19.5679375 8 l0 3.9 l3.02 0 l0 2 l-3.02 0 l0 4.1 l3.8 0 l0 2 l-6 0 l0 -14 l6 0 l0 2 l-3.8 0 z M40.595875 20 l-2.24 0 c-0.12 -0.36 -0.2 -0.58 -0.2 -1.72 l0 -2.2 c0 -1.3 -0.44 -1.78 -1.44 -1.78 l-0.76 0 l0 5.7 l-2.2 0 l0 -14 l3.32 0 c2.28 0 3.26 1.06 3.26 3.22 l0 1.1 c0 1.44 -0.46 2.36 -1.44 2.82 l0 0.04 c1.1 0.46 1.46 1.5 1.46 2.96 l0 2.16 c0 0.68 0.02 1.18 0.24 1.7 z M37.015875 8 l-1.06 0 l0 4.3 l0.86 0 c0.82 0 1.32 -0.36 1.32 -1.48 l0 -1.38 c0 -1 -0.34 -1.44 -1.12 -1.44 z M53.0238125 8 l0 4.22 l2.84 0 l0 2 l-2.84 0 l0 5.78 l-2.2 0 l0 -14 l5.82 0 l0 2 l-3.62 0 z M68.93175 8 l0 3.9 l3.02 0 l0 2 l-3.02 0 l0 4.1 l3.8 0 l0 2 l-6 0 l0 -14 l6 0 l0 2 l-3.8 0 z M87.41968749999998 14.780000000000001 l2.08 0 l0 1.86 c0 2.24 -1.12 3.52 -3.28 3.52 s-3.28 -1.28 -3.28 -3.52 l0 -7.28 c0 -2.24 1.12 -3.52 3.28 -3.52 s3.28 1.28 3.28 3.52 l0 1.36 l-2.08 0 l0 -1.5 c0 -1 -0.44 -1.38 -1.14 -1.38 s-1.14 0.38 -1.14 1.38 l0 7.56 c0 1 0.44 1.36 1.14 1.36 s1.14 -0.36 1.14 -1.36 l0 -2 z M99.22762499999999 8 l0 -2 l6.8 0 l0 2 l-2.3 0 l0 12 l-2.2 0 l0 -12 l-2.3 0 z M130.3435 8 l0 4.22 l2.84 0 l0 2 l-2.84 0 l0 5.78 l-2.2 0 l0 -14 l5.82 0 l0 2 l-3.62 0 z M144.0514375 20 l0 -14 l2.2 0 l0 14 l-2.2 0 z M156.23937499999997 8 l0 -2 l6.8 0 l0 2 l-2.3 0 l0 12 l-2.2 0 l0 -12 l-2.3 0 z M187.35524999999998 8 l0 4.22 l2.84 0 l0 2 l-2.84 0 l0 5.78 l-2.2 0 l0 -14 l5.82 0 l0 2 l-3.62 0 z M203.08318749999998 9.22 l0 7.56 c0 1 0.44 1.38 1.14 1.38 s1.14 -0.38 1.14 -1.38 l0 -7.56 c0 -1 -0.44 -1.38 -1.14 -1.38 s-1.14 0.38 -1.14 1.38 z M200.8831875 16.64 l0 -7.28 c0 -2.24 1.18 -3.52 3.34 -3.52 s3.34 1.28 3.34 3.52 l0 7.28 c0 2.24 -1.18 3.52 -3.34 3.52 s-3.34 -1.28 -3.34 -3.52 z M224.85112499999997 20 l-2.24 0 c-0.12 -0.36 -0.2 -0.58 -0.2 -1.72 l0 -2.2 c0 -1.3 -0.44 -1.78 -1.44 -1.78 l-0.76 0 l0 5.7 l-2.2 0 l0 -14 l3.32 0 c2.28 0 3.26 1.06 3.26 3.22 l0 1.1 c0 1.44 -0.46 2.36 -1.44 2.82 l0 0.04 c1.1 0.46 1.46 1.5 1.46 2.96 l0 2.16 c0 0.68 0.02 1.18 0.24 1.7 z M221.27112499999998 8 l-1.06 0 l0 4.3 l0.86 0 c0.82 0 1.32 -0.36 1.32 -1.48 l0 -1.38 c0 -1 -0.34 -1.44 -1.12 -1.44 z M252.087 6 l2.24 14 l-2.22 0 l-0.38 -2.54 l-2.7 0 l-0.38 2.54 l-2.02 0 l2.24 -14 l3.22 0 z M250.34699999999998 8.48 l-1.04 7.08 l2.12 0 l-1.04 -7.08 l-0.04 0 z M264.3749375 20 l0 -14 l2.2 0 l0 12 l3.62 0 l0 2 l-5.82 0 z M280.18287499999997 20 l0 -14 l2.2 0 l0 12 l3.62 0 l0 2 l-5.82 0 z"></path></g>
			</g>
		</svg>
	